{
  "source": "C:\\Users\\Peter\\Desktop\\stuff\\MIUN\\quantitative_research\\video_compression\\videos\\BVI-HD\\BVI-HD_CDVL_videos\\ORIG\\DiverFishAndRock_1920x1080_30fps.mp4",
  "output": "C:\\Users\\Peter\\Desktop\\stuff\\MIUN\\quantitative_research\\video_compression\\compressed_videos\\BVI-HD\\av1\\3\\DiverFishAndRock_1920x1080_30fps_av1.mkv",
  "codec": "av1",
  "ok": "Input #0, mov,mp4,m4a,3gp,3g2,mj2, from 'C:\\Users\\Peter\\Desktop\\stuff\\MIUN\\quantitative_research\\video_compression\\videos\\BVI-HD\\BVI-HD_CDVL_videos\\ORIG\\DiverFishAndRock_1920x1080_30fps.mp4':\n  Metadata:\n    major_brand     : isom\n    minor_version   : 512\n    compatible_brands: isomiso2avc1mp41\n    encoder         : Lavf54.28.101\n  Duration: 00:00:05.00, start: 0.000000, bitrate: 228854 kb/s\n  Stream #0:0[0x1](und): Video: h264 (High 4:4:4 Predictive) (avc1 / 0x31637661), yuv420p(progressive), 1920x1080, 228851 kb/s, 30 fps, 30 tbr, 30 tbn (default)\n    Metadata:\n      handler_name    : VideoHandler\n      vendor_id       : [0][0][0][0]\n[out#0/matroska @ 000002cd99540b80] Codec AVOption b:a (set bitrate (in bits/s)) has not been used for any stream. The most likely reason is either wrong type (e.g. a video option with no video streams) or that it is a private option of some decoder which was not actually used for any stream.\nStream mapping:\n  Stream #0:0 -> #0:0 (h264 (native) -> av1 (libsvtav1))\nPress [q] to stop, [?] for help\nSvt[info]: -------------------------------------------\nSvt[info]: SVT [version]:\tSVT-AV1 Encoder Lib v3.1.0-19-g6ecfe8ec\nSvt[info]: SVT [build]  :\tGCC 15.2.0\t 64 bit\nSvt[info]: LIB Build date: Aug 17 2025 11:37:13\nSvt[info]: -------------------------------------------\nSvt[info]: Level of Parallelism: 5\nSvt[info]: Number of PPCS 93\nSvt[info]: [asm level on system : up to avx2]\nSvt[info]: [asm level selected : up to avx2]\nSvt[info]: -------------------------------------------\nSvt[info]: SVT [config]: main profile\ttier (auto)\tlevel (auto)\nSvt[info]: SVT [config]: width / height / fps numerator / fps denominator \t\t: 1920 / 1080 / 30 / 1\nSvt[info]: SVT [config]: bit-depth / color format \t\t\t\t\t: 8 / YUV420\nSvt[info]: SVT [config]: preset / tune / pred struct \t\t\t\t\t: 4 / PSNR / random access\nSvt[info]: SVT [config]: gop size / mini-gop size / key-frame type \t\t\t: 161 / 16 / key frame\nSvt[info]: SVT [config]: BRC mode / target bitrate (kbps)\t\t\t\t: VBR / 3000 \nSvt[info]: SVT [config]: AQ mode / Variance Boost \t\t\t\t\t: 2 / 0\nSvt[info]: SVT [config]: sharpness / luminance-based QP bias \t\t\t\t: 0 / 0\nSvt[info]: SVT [config]: QP scale compress strength \t\t\t\t\t: 0\nSvt[info]: -------------------------------------------\nOutput #0, matroska, to 'C:\\Users\\Peter\\Desktop\\stuff\\MIUN\\quantitative_research\\video_compression\\compressed_videos\\BVI-HD\\av1\\3\\DiverFishAndRock_1920x1080_30fps_av1.mkv':\n  Metadata:\n    major_brand     : isom\n    minor_version   : 512\n    compatible_brands: isomiso2avc1mp41\n    encoder         : Lavf62.3.100\n  Stream #0:0(und): Video: av1 (AV01 / 0x31305641), yuv420p(tv, progressive), 1920x1080, q=2-31, 3000 kb/s, 30 fps, 1k tbn (default)\n    Metadata:\n      encoder         : Lavc62.11.100 libsvtav1\n      handler_name    : VideoHandler\n      vendor_id       : [0][0][0][0]\n    Side data:\n      cpb: bitrate max/min/avg: 0/0/3000000 buffer size: 3000000 vbv_delay: N/A\nframe=    0 fps=0.0 q=0.0 size=       0KiB time=N/A bitrate=N/A speed=N/A elapsed=0:00:01.08    \nframe=    0 fps=0.0 q=0.0 size=       0KiB time=N/A bitrate=N/A speed=N/A elapsed=0:00:01.67    \nframe=    0 fps=0.0 q=0.0 size=       0KiB time=N/A bitrate=N/A speed=N/A elapsed=0:00:02.24    \nframe=    0 fps=0.0 q=0.0 size=       0KiB time=N/A bitrate=N/A speed=N/A elapsed=0:00:02.83    \nframe=    0 fps=0.0 q=0.0 size=       0KiB time=N/A bitrate=N/A speed=N/A elapsed=0:00:03.38    \nframe=    0 fps=0.0 q=0.0 size=       0KiB time=N/A bitrate=N/A speed=N/A elapsed=0:00:03.97    \nframe=    0 fps=0.0 q=0.0 size=       0KiB time=N/A bitrate=N/A speed=N/A elapsed=0:00:04.49    \nframe=    1 fps=0.2 q=15.0 size=       1KiB time=00:00:00.00 bitrate=N/A speed=   0x elapsed=0:00:05.04    \nframe=    1 fps=0.2 q=15.0 size=       1KiB time=00:00:00.00 bitrate=N/A speed=   0x elapsed=0:00:05.60    \nframe=    1 fps=0.2 q=15.0 size=       1KiB time=00:00:00.00 bitrate=N/A speed=   0x elapsed=0:00:06.16    \nframe=    2 fps=0.3 q=37.0 size=       1KiB time=00:00:00.03 bitrate= 171.1kbits/s speed=0.00498x elapsed=0:00:06.69    \nframe=    7 fps=1.0 q=33.0 size=       1KiB time=00:00:00.16 bitrate=  34.2kbits/s speed=0.0231x elapsed=0:00:07.21    \nframe=    8 fps=1.0 q=35.0 size=       1KiB time=00:00:00.23 bitrate=  24.4kbits/s speed=0.03x elapsed=0:00:07.77    \nframe=   11 fps=1.3 q=32.0 size=       1KiB time=00:00:00.30 bitrate=  19.0kbits/s speed=0.036x elapsed=0:00:08.34    \nframe=   13 fps=1.5 q=29.0 size=       1KiB time=00:00:00.40 bitrate=  14.3kbits/s speed=0.0449x elapsed=0:00:08.90    \nframe=   17 fps=1.8 q=18.0 size=       1KiB time=00:00:00.53 bitrate=  10.7kbits/s speed=0.0565x elapsed=0:00:09.43    \nframe=   19 fps=1.9 q=32.0 size=       1KiB time=00:00:00.60 bitrate=   9.5kbits/s speed=0.0603x elapsed=0:00:09.94    \nframe=   22 fps=2.1 q=29.0 size=       1KiB time=00:00:00.70 bitrate=   8.1kbits/s speed=0.0668x elapsed=0:00:10.48    \nframe=   24 fps=2.2 q=30.0 size=       1KiB time=00:00:00.73 bitrate=   7.8kbits/s speed=0.0664x elapsed=0:00:11.04    \nframe=   27 fps=2.3 q=32.0 size=       1KiB time=00:00:00.86 bitrate=   6.6kbits/s speed=0.0745x elapsed=0:00:11.63    \nframe=   28 fps=2.3 q=30.0 size=       1KiB time=00:00:00.90 bitrate=   6.3kbits/s speed=0.0739x elapsed=0:00:12.17    \nframe=   33 fps=2.6 q=17.0 size=       1KiB time=00:00:01.06 bitrate=   5.3kbits/s speed=0.0838x elapsed=0:00:12.73    \nframe=   36 fps=2.7 q=30.0 size=       1KiB time=00:00:01.16 bitrate=   4.9kbits/s speed=0.0879x elapsed=0:00:13.27    \nframe=   38 fps=2.8 q=30.0 size=       1KiB time=00:00:01.23 bitrate=   4.6kbits/s speed=0.0894x elapsed=0:00:13.79    \nframe=   40 fps=2.8 q=30.0 size=       1KiB time=00:00:01.30 bitrate=   4.4kbits/s speed=0.0907x elapsed=0:00:14.34    \nframe=   43 fps=2.9 q=31.0 size=       1KiB time=00:00:01.40 bitrate=   4.1kbits/s speed=0.0939x elapsed=0:00:14.91    \nframe=   48 fps=3.1 q=33.0 size=       1KiB time=00:00:01.53 bitrate=   3.7kbits/s speed=0.0988x elapsed=0:00:15.51    \nframe=   51 fps=3.2 q=33.0 size=       1KiB time=00:00:01.66 bitrate=   3.4kbits/s speed=0.104x elapsed=0:00:16.09    \nframe=   55 fps=3.3 q=30.0 size=       1KiB time=00:00:01.80 bitrate=   3.2kbits/s speed=0.108x elapsed=0:00:16.64    \nframe=   57 fps=3.3 q=27.0 size=       1KiB time=00:00:01.86 bitrate=   3.1kbits/s speed=0.109x elapsed=0:00:17.19    \nframe=   61 fps=3.4 q=29.0 size=       1KiB time=00:00:01.93 bitrate=   3.0kbits/s speed=0.109x elapsed=0:00:17.77    \nframe=   63 fps=3.4 q=32.0 size=       1KiB time=00:00:02.06 bitrate=   2.8kbits/s speed=0.113x elapsed=0:00:18.33    \nframe=   67 fps=3.6 q=34.0 size=       1KiB time=00:00:02.20 bitrate=   2.6kbits/s speed=0.117x elapsed=0:00:18.87    \nframe=   71 fps=3.7 q=34.0 size=       1KiB time=00:00:02.33 bitrate=   2.4kbits/s speed=0.12x elapsed=0:00:19.42    \nframe=   73 fps=3.7 q=28.0 size=       1KiB time=00:00:02.40 bitrate=   2.4kbits/s speed=0.12x elapsed=0:00:19.93    \nframe=   77 fps=3.8 q=30.0 size=       1KiB time=00:00:02.53 bitrate=   2.3kbits/s speed=0.124x elapsed=0:00:20.48    \nframe=   81 fps=3.8 q=16.0 size=       1KiB time=00:00:02.66 bitrate=   2.1kbits/s speed=0.127x elapsed=0:00:21.04    \nframe=   85 fps=3.9 q=31.0 size=       1KiB time=00:00:02.80 bitrate=   2.0kbits/s speed=0.13x elapsed=0:00:21.58    \nframe=   89 fps=4.0 q=27.0 size=       1KiB time=00:00:02.93 bitrate=   1.9kbits/s speed=0.132x elapsed=0:00:22.16    \nframe=   89 fps=3.9 q=27.0 size=       1KiB time=00:00:02.93 bitrate=   1.9kbits/s speed=0.129x elapsed=0:00:22.73    \nframe=   93 fps=4.0 q=29.0 size=       1KiB time=00:00:03.06 bitrate=   1.9kbits/s speed=0.131x elapsed=0:00:23.32    \nframe=   95 fps=4.0 q=32.0 size=       1KiB time=00:00:03.13 bitrate=   1.8kbits/s speed=0.131x elapsed=0:00:23.93    \nframe=   99 fps=4.0 q=34.0 size=       1KiB time=00:00:03.26 bitrate=   1.7kbits/s speed=0.133x elapsed=0:00:24.57    \nframe=  101 fps=4.0 q=32.0 size=       1KiB time=00:00:03.33 bitrate=   1.7kbits/s speed=0.132x elapsed=0:00:25.15    \nframe=  105 fps=4.1 q=27.0 size=       1KiB time=00:00:03.46 bitrate=   1.6kbits/s speed=0.135x elapsed=0:00:25.71    \nframe=  105 fps=4.0 q=27.0 size=       1KiB time=00:00:03.46 bitrate=   1.6kbits/s speed=0.132x elapsed=0:00:26.24    \nframe=  109 fps=4.1 q=29.0 size=       1KiB time=00:00:03.60 bitrate=   1.6kbits/s speed=0.135x elapsed=0:00:26.76    \nframe=  113 fps=4.1 q=19.0 size=       1KiB time=00:00:03.66 bitrate=   1.6kbits/s speed=0.134x elapsed=0:00:27.31    \nframe=  117 fps=4.2 q=31.0 size=       1KiB time=00:00:03.86 bitrate=   1.5kbits/s speed=0.139x elapsed=0:00:27.85    \nframe=  119 fps=4.2 q=32.0 size=       1KiB time=00:00:03.93 bitrate=   1.5kbits/s speed=0.139x elapsed=0:00:28.37    \nframe=  121 fps=4.2 q=27.0 size=       1KiB time=00:00:04.00 bitrate=   1.4kbits/s speed=0.138x elapsed=0:00:28.89    \nframe=  127 fps=4.3 q=35.0 size=       1KiB time=00:00:04.20 bitrate=   1.4kbits/s speed=0.143x elapsed=0:00:29.41    \nframe=  133 fps=4.4 q=36.0 size=       1KiB time=00:00:04.40 bitrate=   1.3kbits/s speed=0.147x elapsed=0:00:29.93    \nframe=  137 fps=4.5 q=32.0 size=       1KiB time=00:00:04.53 bitrate=   1.3kbits/s speed=0.149x elapsed=0:00:30.45    \nframe=  141 fps=4.6 q=36.0 size=       1KiB time=00:00:04.66 bitrate=   1.2kbits/s speed=0.151x elapsed=0:00:30.96    \n[out#0/matroska @ 000002cd99540b80] video:1794KiB audio:0KiB subtitle:0KiB other streams:0KiB global headers:0KiB muxing overhead: 0.079577%\nframe=  150 fps=4.8 q=36.0 Lsize=    1796KiB time=00:00:04.96 bitrate=2961.6kbits/s speed=0.16x elapsed=0:00:31.11    \n",
  "seconds": 31.57660722732544,
  "probe_out": {}
}